<?xml version="1.0" encoding="UTF-8"?>
<svg id="Layer_1" data-name="Layer 1" xmlns="http://www.w3.org/2000/svg" version="1.1" viewBox="0 0 817.8 170">
  <defs>
    <style>
      .cls-1 {
        fill: #1e3a8a;
      }

      .cls-1, .cls-2, .cls-3 {
        stroke-width: 0px;
      }

      .cls-2 {
        fill: #194275;
      }

      .cls-3 {
        fill: #cd2027;
      }
    </style>
  </defs>
  <path class="cls-1" d="M817.8,90.8c0-35.8-29-64.9-64.9-64.9s-64.9,29-64.9,64.9,29,64.9,64.9,64.9,64.9-29,64.9-64.9h0ZM811.4,90.8c0,32.2-26.1,58.4-58.4,58.4s-58.4-26.1-58.4-58.4,26.1-58.4,58.4-58.4,58.4,26.1,58.4,58.4h0ZM780.8,96.3h2.2v-11.1h-2.2v11.1h0ZM767.7,96.3h10.4v-2.2h-8.2v-8.9h-2.2v11.1h0ZM762.9,96.3h2.2v-11.1h-2.2v11.1h0ZM760.5,93c0-.9-.3-1.6-.9-2.2.5-.6.9-1.4.9-2.2,0-1.8-1.5-3.3-3.3-3.3h-7.8v11.1h7.7c1.8,0,3.3-1.5,3.3-3.3h0ZM758.3,88.6c0,.6-.5,1.1-1.1,1.1h-5.5v-2.2h5.6c.6,0,1.1.5,1.1,1.1h0ZM758.3,93c0,.6-.5,1.1-1.1,1.1h-5.6v-2.2h5.5c.6,0,1.1.5,1.1,1.1h0ZM747.2,90.8c0-3.3-2.5-5.9-5.5-5.9s-5.5,2.6-5.5,5.9,2.5,5.9,5.5,5.9,5.5-2.6,5.5-5.9h0ZM745,90.8c0,2-1.5,3.7-3.3,3.7s-3.3-1.7-3.3-3.7,1.5-3.7,3.3-3.7,3.3,1.7,3.3,3.7h0ZM725.2,89.5l8.9,7.2v-11.5h-2.2v6.8l-8.9-7.2v11.5h2.2v-6.8h0ZM632.3,170L730.5,0h-131.8v29.1h81.3l-81.3,140.9h33.6ZM512.2,134.2h19.7V35.9h-19.7v98.3h0ZM396.7,134.2h91.9v-19.7h-72.2V35.8h-19.7v98.3h0ZM353.4,134.1h19.7V35.8h-19.7v98.3h0ZM332.4,104.7c0-7.6-2.8-14.5-7.5-19.7,4.7-5.2,7.5-12.1,7.5-19.6,0-16.2-13.1-29.4-29.4-29.5h-69v98.3h68.7c16.3,0,29.7-13.2,29.7-29.5h0ZM312.8,65.3c0,5.4-4.4,9.8-9.8,9.8h-49.1v-19.7h49.5c5.3.2,9.5,4.5,9.5,9.8h-.1ZM312.8,104.7c0,5.4-4.4,9.8-9.8,9.8h.5-49.6v-19.7h49c5.5,0,9.9,4.4,9.9,9.8h0ZM214.4,85c0-29-22-52.4-49.2-52.4s-49.2,23.5-49.2,52.4,22,52.4,49.2,52.4,49.2-23.5,49.2-52.4h0ZM194.7,85c0,18.1-13.2,32.8-29.5,32.8s-29.5-14.7-29.5-32.8,13.2-32.8,29.5-32.8,29.5,14.7,29.5,32.8h0ZM19.6,73.8l78.7,63.7V35.9h-19.7v60.4L0,32.7v101.6h19.7v-60.4h-.1Z"/>
  <polygon class="cls-2" points="751.8 130.5 754.2 130.5 754.2 142.7 751.8 142.7 751.8 130.5 751.8 130.5"/>
  <polygon class="cls-3" points="713.3 92 713.3 89.6 701.1 89.6 701.1 92 713.3 92 713.3 92"/>
</svg>